<svg xmlns="http://www.w3.org/2000/svg" version="1.1" xmlns:xlink="http://www.w3.org/1999/xlink" xmlns:svgjs="http://svgjs.dev/svgjs" width="1500" height="320" viewBox="0 0 1500 320"><g transform="matrix(1,0,0,1,0.25491573033696113,-0.6905263157894126)"><svg viewBox="0 0 356 76" data-background-color="#ffffff" preserveAspectRatio="xMidYMid meet" height="320" width="1500" xmlns="http://www.w3.org/2000/svg" xmlns:xlink="http://www.w3.org/1999/xlink"><g id="tight-bounds" transform="matrix(1,0,0,1,-0.06049999999996203,0.16399999999998727)"><svg viewBox="0 0 356.12052 75.67172260869565" height="75.67172260869565" width="356.12052"><g><svg viewBox="0 0 356.12052 75.67172260869565" height="75.67172260869565" width="356.12052"><g><svg viewBox="0 0 356.12052 75.67172260869565" height="75.67172260869565" width="356.12052"><g><path d="M0 75.672v-75.672h356.121v75.672z" fill="#111827" stroke="transparent" stroke-width="0" rx="0%" data-fill-palette-color="tertiary"></path><path d="M3.283 72.388v-69.105h349.554v69.105z" fill="#ffffff" stroke="transparent" stroke-width="0" rx="0%" data-fill-palette-color="quaternary"></path><path d="M9.85 65.822v-55.972h336.421v55.972z" fill="#111827" stroke="transparent" stroke-width="0" data-fill-palette-color="tertiary"></path></g><g transform="matrix(1,0,0,1,19.69974,19.69974)" id="textblocktransform"><svg viewBox="0 0 316.72104 36.27224260869565" height="36.27224260869565" width="316.72104" id="textblock"><g><svg viewBox="0 0 316.72104 36.27224260869565" height="36.27224260869565" width="316.72104"><g transform="matrix(1,0,0,1,0,0)"><svg width="316.72104" viewBox="4.15 -35.8 317.38 36.349999999999994" height="36.27224260869565" data-palette-color="#ffffff"><path d="M27.1-11.25L27.1-35.8 31.65-35.8 31.65-11.25Q31.65-5.45 27.4-2.25L27.4-2.25Q23.75 0.55 17.85 0.55L17.85 0.55Q11.05 0.55 7.35-3L7.35-3Q4.15-6.15 4.15-11.25L4.15-11.25 4.15-35.8 8.7-35.8 8.7-11.25Q8.7-7.55 11.1-5.53 13.5-3.5 17.85-3.5L17.85-3.5Q22.45-3.5 24.95-5.8L24.95-5.8Q27.1-7.85 27.1-11.25L27.1-11.25ZM56.3-15.4L44.55-15.4 44.55 0 40 0 40-35.8 56.45-35.8Q62.15-35.8 64.95-33L64.95-33Q67.4-30.55 67.4-26.2L67.4-26.2Q67.4-23.15 66.07-21.15 64.75-19.15 61.7-17.65L61.7-17.65Q64.15-16.7 65.3-15.1L65.3-15.1Q66.45-13.45 66.6-8.35L66.6-8.35Q66.7-4.6 67.07-3.33 67.45-2.05 68.75-1.15L68.75-1.15 68.75 0 63.25 0Q62.15-2.3 62.15-4.85L62.15-4.85 62.2-10.45Q62.2-11 61.75-12.15 61.3-13.3 60.9-13.8L60.9-13.8Q59.55-15.4 56.3-15.4L56.3-15.4ZM44.55-31.75L44.55-19.45 55.6-19.45Q62.65-19.45 62.65-25.6L62.65-25.6Q62.65-31.75 55.6-31.75L55.6-31.75 44.55-31.75ZM90.9 0L74.8 0 74.8-35.8 89.35-35.8Q94.35-35.8 97.1-33.3L97.1-33.3Q99.95-30.7 99.95-26.7L99.95-26.7Q99.95-21.2 94.95-18.9L94.95-18.9Q101.5-16.4 101.5-10.2L101.5-10.2Q101.5-5.9 98.75-3L98.75-3Q95.9 0 90.9 0L90.9 0ZM79.35-31.75L79.35-20.4 88.2-20.4Q91.7-20.4 93.4-21.65L93.4-21.65Q95.35-23.1 95.35-26.05L95.35-26.05Q95.35-29 93.4-30.5L93.4-30.5Q91.7-31.75 88.2-31.75L88.2-31.75 79.35-31.75ZM79.35-16.35L79.35-4.05 90.5-4.05Q93.55-4.05 95.25-5.68 96.95-7.3 96.95-10.2L96.95-10.2Q96.95-13.1 95.25-14.73 93.55-16.35 90.5-16.35L90.5-16.35 79.35-16.35ZM130.64 0L126.94-10.75 113.14-10.75 109.34 0 104.49 0 117.24-35.8 123.14-35.8 135.69 0 130.64 0ZM114.29-14.6L125.64-14.6 120.14-30.85 114.29-14.6ZM163.79-35.8L168.09-35.8 168.09 0 162.99 0 144.44-29.05 144.44 0 140.14 0 140.14-35.8 145.09-35.8 163.79-6.55 163.79-35.8ZM208.14-11.25L208.14-35.8 212.69-35.8 212.69-11.25Q212.69-5.45 208.44-2.25L208.44-2.25Q204.79 0.55 198.89 0.55L198.89 0.55Q192.09 0.55 188.39-3L188.39-3Q185.19-6.15 185.19-11.25L185.19-11.25 185.19-35.8 189.74-35.8 189.74-11.25Q189.74-7.55 192.14-5.53 194.54-3.5 198.89-3.5L198.89-3.5Q203.49-3.5 205.99-5.8L205.99-5.8Q208.14-7.85 208.14-11.25L208.14-11.25ZM248.13-35.8L235.73 0 230.78 0 217.93-35.8 222.83-35.8 233.38-5.5 243.28-35.8 248.13-35.8ZM276.23 0L272.53-10.75 258.73-10.75 254.93 0 250.08 0 262.83-35.8 268.73-35.8 281.28 0 276.23 0ZM259.88-14.6L271.23-14.6 265.73-30.85 259.88-14.6ZM311.08-31.75L299.38-31.75 299.38 0 294.83 0 294.83-31.75 283.03-31.75 283.03-35.8 311.08-35.8 311.08-31.75ZM316.88-35.8L321.53-35.8 321.53 0 316.88 0 316.88-35.8Z" opacity="1" transform="matrix(1,0,0,1,0,0)" fill="#ffffff" class="wordmark-text-0" data-fill-palette-color="quaternary" id="text-0"></path></svg></g></svg></g></svg></g></svg></g><g></g></svg></g><defs></defs></svg><rect width="356.12052" height="75.67172260869565" fill="none" stroke="none" visibility="hidden"></rect></g></svg></g></svg>